<?xml version="1.0" standalone="no"?>
<!DOCTYPE svg PUBLIC "-//W3C//DTD SVG 20010904//EN"
 "http://www.w3.org/TR/2001/REC-SVG-20010904/DTD/svg10.dtd">
<svg version="1.0" xmlns="http://www.w3.org/2000/svg"
 width="510.000000pt" height="510.000000pt" viewBox="0 0 510.000000 510.000000"
 preserveAspectRatio="xMidYMid meet">
<metadata>
Created by potrace 1.11, written by Peter Selinger 2001-2013
</metadata>
<g transform="translate(0.000000,510.000000) scale(0.100000,-0.100000)"
fill="#000000" stroke="none">
<path d="M1040 5080 c-263 -49 -491 -168 -676 -354 -68 -69 -140 -159 -176
-221 -52 -89 -109 -211 -124 -265 -35 -128 -45 -171 -53 -228 -11 -79 -9
-2898 3 -2952 20 -94 38 -167 45 -185 5 -11 20 -52 35 -90 67 -180 205 -368
365 -496 164 -133 317 -208 526 -261 l90 -22 1440 -3 c793 -1 1460 2 1485 7
25 4 65 11 89 15 77 11 252 74 341 121 298 161 517 426 614 744 57 186 55 142
53 1700 l-2 1435 -32 117 c-69 255 -173 433 -357 611 -174 169 -402 284 -646
327 -99 17 -188 18 -1515 18 -1307 0 -1417 -1 -1505 -18z"/>
</g>
</svg>
